<?xml version="1.0" encoding="utf-8"?>
<!-- Generator: Adobe Illustrator 16.0.4, SVG Export Plug-In . SVG Version: 6.00 Build 0)  -->
<!DOCTYPE svg PUBLIC "-//W3C//DTD SVG 1.1//EN" "http://www.w3.org/Graphics/SVG/1.1/DTD/svg11.dtd">
<svg version="1.1" id="Ebene_1" xmlns="http://www.w3.org/2000/svg" xmlns:xlink="http://www.w3.org/1999/xlink" x="0px" y="0px"
	 width="472.57px" height="211px" viewBox="0 0 472.57 211" enable-background="new 0 0 472.57 211" xml:space="preserve">
<polygon id="upper_line" fill="#FFFFFF" points="14.702,96.525 456.034,96.525 456.034,97.316 14.702,97.316 "/>
<polygon id="lower_line" fill="#FFFFFF" points="14.702,196.209 456.034,196.209 456.034,197 14.702,197 "/>
<path id="Grafik" fill="#FFFFFF" d="M116.629,89.109l0.082-0.821l0.241-0.808l0.391-0.726l0.517-0.636l0.624-0.523l0.717-0.396
	l0.79-0.248l0.847-0.085l0.852,0.085l0.789,0.248l0.716,0.396l0.625,0.523l0.513,0.636l0.395,0.726l0.24,0.808l0.083,0.821
	l0.061,0.231h-0.441v-0.188l-0.082-0.792l-0.222-0.726l-0.354-0.661l-0.472-0.575l-0.564-0.475l-0.647-0.356l-0.72-0.227
	l-0.771-0.081l-0.77,0.081l-0.717,0.228l-0.65,0.356l-0.567,0.475l-0.468,0.575l-0.352,0.661l-0.226,0.726l-0.081,0.792v0.188h-0.44
	l0.057-0.231L116.629,89.109L116.629,89.109z M444.802,89.154l0.234-0.215l0.229-0.237l0.222-0.247l0.201-0.26l0.189-0.272
	l0.18-0.281l0.167-0.297l0.146-0.305l0.14-0.311l0.112-0.321l0.104-0.328l0.087-0.336l0.062-0.346l0.053-0.351l0.023-0.355
	l0.015-0.358l-0.027-0.641l-0.095-0.615l-0.146-0.59l-0.2-0.564l-0.255-0.536l-0.301-0.505l-0.341-0.466l-0.387-0.429l-0.428-0.394
	l-0.459-0.345l-0.492-0.303l-0.518-0.252l-0.549-0.2l-0.566-0.146l-0.59-0.093l-0.604-0.029l-0.605,0.029l-0.589,0.093l-0.565,0.146
	l-0.544,0.2l-0.518,0.252l-0.486,0.301l-0.454,0.347l-0.421,0.394l-0.385,0.432l-0.34,0.465l-0.299,0.505l-0.248,0.534l-0.203,0.562
	l-0.146,0.593l-0.088,0.614l-0.028,0.643l0.007,0.358l0.028,0.354l0.05,0.353l0.066,0.345l0.08,0.336l0.104,0.33l0.115,0.322
	l0.135,0.311l0.146,0.304l0.161,0.294l0.176,0.283l0.189,0.271l0.205,0.264l0.223,0.245l0.228,0.234l0.235,0.216l0.188,0.126
	l-0.333,0.339l-0.118-0.18l-0.234-0.217l-0.243-0.249l-0.233-0.261l-0.22-0.277l-0.202-0.289l-0.188-0.298l-0.174-0.314
	l-0.161-0.322l-0.142-0.327l-0.129-0.342l-0.104-0.35l-0.089-0.359l-0.067-0.363l-0.053-0.379l-0.028-0.377l-0.011-0.388
	l0.032-0.671l0.093-0.657l0.155-0.628l0.213-0.601l0.265-0.57l0.312-0.535l0.362-0.498l0.405-0.461l0.447-0.409l0.484-0.37
	l0.521-0.316l0.552-0.271l0.579-0.212l0.604-0.158l0.625-0.097l0.646-0.034l0.646,0.034l0.625,0.097l0.604,0.158l0.58,0.212
	l0.555,0.27l0.523,0.319l0.483,0.37l0.448,0.41l0.41,0.46l0.367,0.494l0.315,0.532l0.269,0.57l0.217,0.601l0.154,0.63l0.099,0.655
	l0.031,0.673l-0.016,0.389l-0.027,0.377l-0.052,0.373l-0.069,0.363l-0.091,0.358l-0.103,0.349l-0.131,0.342l-0.142,0.33
	l-0.163,0.324l-0.171,0.31l-0.188,0.301l-0.203,0.289l-0.22,0.274l-0.229,0.267l-0.243,0.246l-0.229,0.217l-0.116,0.182
	l-0.336-0.339l0.186-0.126L444.802,89.154z M404.832,89.264l0.062-0.324l0.049-0.325l0.037-0.322l0.019-0.322l0.021-0.32
	l0.004-0.324l-0.004-0.322l-0.011-0.325l-0.024-0.323l-0.031-0.329l-0.042-0.332l-0.052-0.328l-0.125-0.664l-0.146-0.661
	l-0.786-1.885l-0.199-0.317l-0.205-0.315l-0.211-0.304l-0.211-0.296l-0.22-0.29l-0.229-0.288l-0.494-0.57l-0.281-0.247l-0.285-0.238
	l-0.281-0.229l-0.289-0.223l-0.289-0.212l-0.301-0.208l-0.629-0.397l-0.348-0.163l-0.346-0.15l-0.342-0.142l-0.343-0.128
	l-0.345-0.12l-0.354-0.11l-0.729-0.205l-0.387-0.052l-0.387-0.045l-0.377-0.033l-0.373-0.021l-0.375-0.016h-0.379l-0.393,0.009
	l-0.389,0.016l-0.379,0.062l-0.373,0.069l-0.362,0.077l-0.355,0.087l-0.354,0.094l-0.354,0.104l-0.358,0.12l-0.359,0.125
	l-0.335,0.165l-0.333,0.173l-0.316,0.179l-0.312,0.185l-0.309,0.191l-0.308,0.202l-0.31,0.216l-0.301,0.222l-0.276,0.26l-0.267,0.26
	l-0.256,0.267l-0.242,0.266l-0.238,0.272l-0.229,0.28l-0.233,0.295l-0.229,0.301l-0.19,0.33l-0.188,0.33l-0.177,0.328l-0.16,0.331
	l-0.147,0.335l-0.148,0.344l-0.139,0.36l-0.136,0.356l-0.083,0.344l-0.136,0.679l-0.056,0.329l-0.047,0.328l-0.03,0.322
	l-0.021,0.317l-0.02,0.317l-0.003,0.313v0.314l0.018,0.312l0.021,0.315l0.032,0.321l0.043,0.32l0.051,0.325l0.105,0.562
	l-38.572-0.033l0.095-0.177l0.021-0.06l0.02-1.328l-0.106-1.258l-0.229-1.17l-0.341-1.084l-0.445-0.998l-0.539-0.916l-0.624-0.828
	l-0.704-0.74l-0.773-0.66l-0.836-0.576l-0.894-0.487l-0.933-0.402l-0.975-0.314l-0.999-0.231l-1.021-0.139l-1.033-0.058
	l-1.031,0.033l-1.025,0.121l-1.016,0.211l-0.988,0.306l-0.957,0.386l-0.914,0.474l-0.869,0.566l-0.809,0.65l-0.746,0.743
	l-0.676,0.83l-0.59,0.922l-0.505,1.016l-0.402,1.105l-0.297,1.196l-0.185,1.295l-0.055,1.365l0.053,0.22h-0.492l0.056-0.229
	l0.058-1.39l0.187-1.334l0.31-1.233l0.418-1.146l0.521-1.056l0.616-0.955l0.697-0.871l0.775-0.77l0.844-0.681l0.896-0.582
	l0.952-0.496l0.988-0.398l1.021-0.306l1.038-0.222l1.062-0.125l1.063-0.034l1.062,0.056l1.055,0.149l1.031,0.236l1.006,0.331
	l0.967,0.416l0.921,0.508l0.87,0.597l0.804,0.686l0.729,0.774l0.646,0.864l0.562,0.952l0.459,1.039l0.354,1.128l0.24,1.211
	l0.112,1.297l-0.019,1.357l12.388-1.495l0.953-1.453l0.123-1.997l-0.359-0.974l-1.562-1.853l-0.392-4.477l-0.518-1.193l0.646-9.052
	l-0.641-3.901l-2.816-15.915l-0.975-1.361l-1.343-0.622l-3.579-0.52l-3.33-0.392l-61.781,0.523l-0.649,0.038l-0.657,0.048
	l-0.652,0.061l-0.657,0.071l-0.654,0.083l-0.653,0.1l-0.658,0.113l-0.655,0.132l-0.652,0.146l-0.653,0.164l-0.656,0.179
	l-0.656,0.203l-0.656,0.22l-0.652,0.235l-0.651,0.261l-0.642,0.274l-18.037,13.094l-1.903,0.515l-1.153,1.431l-10.839,4.199
	l-0.321,0.225l-0.324,0.242l-0.312,0.244l-0.293,0.247l-0.271,0.247l-0.265,0.256l-0.241,0.256l-0.229,0.262l-0.209,0.267
	l-0.196,0.269l-0.181,0.27l-0.163,0.274l-0.146,0.281l-0.135,0.286l-0.117,0.285l-0.104,0.291l-1.157,3.786l-1.4,4.286l0.509,4.801
	l0.125,2.575l0.601,1.098l1.486,1.004l2.912,1.039l0.221,0.544l-40.077,0.062l0.064-0.48l10.456-1.45l2.643-4.652l0.103-0.304
	l0.069-0.315l0.047-0.314l0.016-0.312l-0.013-0.31l-0.044-0.314l-0.071-0.312l-0.104-0.312l-0.135-0.315l-0.159-0.318l-0.193-0.319
	l-0.228-0.323l-0.257-0.322l-0.287-0.322l-0.316-0.331l-0.323-0.307l-0.444-0.18l-0.418-0.257l-0.342-0.315l-0.271-0.376
	l-0.181-0.428l-0.098-0.479l-0.021-0.519l0.062-0.562l0.72-4.739l-0.031-0.886l-0.116-0.74l-0.188-0.576l-0.271-0.418l-0.33-0.271
	l-0.398-0.142l-0.503-0.009l-0.643,0.139h-7.84l-1.185-0.928l-1.172-0.832l-1.221-0.78l-1.253-0.729l-1.296-0.68l-1.334-0.629
	l-1.37-0.583l-1.408-0.536l-1.444-0.496l-1.479-0.447l-1.518-0.4l-1.545-0.358l-1.58-0.318l-1.612-0.278l-1.638-0.234l-1.672-0.201
	l-1.703-0.158l-1.729-0.122l-1.752-0.089l-1.774-0.056l-1.792-0.009l-1.825,0.011l-1.851,0.045l-1.862,0.075l-1.885,0.103
	l-1.906,0.132l-1.928,0.161l-1.943,0.186l-1.957,0.213l-1.977,0.239l-1.983,0.26l-1.958,0.275L133.48,70.575l-1.749,0.122
	c-0.84,0.062-1.678,0.135-2.521,0.209c-0.828,0.08-1.663,0.166-2.498,0.255l-1.65,0.194c-0.812,0.104-1.633,0.214-2.451,0.332
	c-0.814,0.112-1.619,0.244-2.429,0.374l-1.603,0.278l-1.593,0.306l-1.572,0.324l-1.565,0.348l-1.55,0.374l-1.536,0.396l-1.518,0.421
	l-1.463,0.434L106.711,76l-0.749,0.724l-1.295,0.202l-1.098,1.065l-1.271,2.473l-0.288,0.151l-0.195,0.202l-0.185,0.299l-0.15,0.371
	l-0.109,0.425l-0.061,0.463v0.476l0.059,0.461l0.754,1.914l-0.925,1.132l0.021,0.994l1.071,1.262l-0.101,0.413l0.024-0.008
	l-0.146,0.409l-0.073,0.035H80.009l0.116-0.234l0.062-0.197l0.077-0.271l0.11-0.45l0.096-0.457l0.078-0.462l0.062-0.467l0.045-0.474
	l0.028-0.478l0.009-0.482l-0.016-0.647l-0.051-0.638l-0.083-0.63l-0.106-0.623L80.3,82.345l-0.169-0.597l-0.191-0.589l-0.227-0.578
	l-0.247-0.558l-0.277-0.543l-0.298-0.525l-0.326-0.514l-0.351-0.496l-0.363-0.481l-0.395-0.457l-0.412-0.438l-0.43-0.418
	l-0.452-0.395l-0.47-0.376l-0.487-0.353l-0.503-0.333l-0.521-0.305l-0.535-0.278l-0.549-0.254l-0.568-0.227l-0.577-0.199
	l-0.587-0.172l-0.598-0.143l-0.611-0.111l-0.619-0.08l-0.629-0.047l-0.64-0.02l-0.641,0.02L67,72.925l-0.618,0.08l-0.609,0.111
	l-0.602,0.143l-0.591,0.172l-0.57,0.199l-0.567,0.227l-0.547,0.254l-0.538,0.278l-0.521,0.305l-0.504,0.332l-0.483,0.352
	l-0.473,0.376l-0.446,0.395l-0.436,0.418l-0.41,0.438l-0.394,0.458l-0.369,0.477l-0.347,0.496l-0.325,0.511l-0.299,0.527
	l-0.273,0.546l-0.25,0.556l-0.222,0.579L56.41,81.74l-0.169,0.598l-0.137,0.609l-0.111,0.622l-0.08,0.629l-0.047,0.64l-0.017,0.646
	l0.009,0.487l0.023,0.484l0.049,0.474l0.062,0.472l0.08,0.467l0.098,0.46l0.113,0.452l0.124,0.437l0.131,0.271H56.03v-0.173
	l-0.125-0.429l-0.116-0.469l-0.097-0.474l-0.083-0.481l-0.063-0.485l-0.045-0.496l-0.026-0.493l-0.013-0.5l0.02-0.669l0.05-0.659
	l0.083-0.649l0.113-0.639l0.145-0.629l0.171-0.616l0.202-0.604l0.231-0.59l0.256-0.577l0.282-0.562l0.309-0.544l0.333-0.53
	l0.358-0.511l0.378-0.493l0.403-0.47l0.426-0.453l0.444-0.431l0.463-0.412l0.487-0.387l0.503-0.365l0.52-0.337l0.532-0.313
	l0.556-0.29l0.562-0.262l0.582-0.233l0.597-0.203l0.604-0.175l0.619-0.146l0.63-0.117l0.64-0.081l0.649-0.053l0.654-0.016
	l0.654,0.016l0.65,0.053l0.639,0.081l0.628,0.117l0.619,0.146l0.606,0.175l0.596,0.203l0.578,0.233l0.569,0.262l0.551,0.29
	l0.537,0.313l0.52,0.337l0.502,0.365L76.4,75.45l0.464,0.412l0.445,0.431l0.423,0.451l0.407,0.472l0.381,0.493l0.354,0.511
	l0.333,0.53l0.312,0.544l0.282,0.562l0.257,0.577l0.229,0.59l0.204,0.604l0.172,0.616l0.146,0.629l0.11,0.639l0.082,0.649
	l0.05,0.659l0.017,0.669l-0.008,0.499l-0.025,0.492l-0.048,0.488l-0.062,0.481l-0.082,0.478l-0.097,0.472l-0.115,0.465l-0.061,0.206
	h21.226l0.088-0.36l-1.028-1.215l-0.032-1.282l0.873-1.063l-0.688-1.743l-0.064-0.536v-0.518l0.064-0.513l0.121-0.476l0.179-0.425
	l0.224-0.362l0.271-0.277l0.234-0.123l1.246-2.413l1.228-1.2l1.299-0.204l0.653-0.631l1.11-1.13l1.561-0.465l1.53-0.42l1.537-0.399
	l1.554-0.375l1.572-0.351l1.58-0.328l1.597-0.304l1.605-0.282l1.624-0.256c0.812-0.123,1.636-0.236,2.451-0.35
	c0.824-0.104,1.65-0.207,2.478-0.299c0.826-0.096,1.671-0.179,2.504-0.259l1.684-0.146c0.832-0.062,1.659-0.123,2.486-0.18
	l14.974-10.623l2.051-0.29l1.99-0.26l1.975-0.238l1.964-0.213l1.947-0.188l1.927-0.166l1.915-0.134l1.892-0.104l1.873-0.077
	l1.854-0.044l1.831-0.013l1.808,0.02l1.784,0.055l1.757,0.087l1.736,0.125l1.7,0.161l1.681,0.198l1.65,0.24l1.618,0.277l1.592,0.319
	l1.56,0.36l1.524,0.407l1.49,0.447l1.459,0.494l1.424,0.542l1.389,0.586l1.346,0.638l1.311,0.688l1.269,0.74l1.229,0.79l1.187,0.842
	l1.087,0.853h7.651l0.646-0.144l0.604,0.016l0.53,0.183l0.432,0.352l0.324,0.515l0.217,0.655l0.125,0.794l0.034,0.945l-0.725,4.776
	l-0.058,0.524l0.017,0.462l0.083,0.406l0.148,0.353l0.216,0.306l0.285,0.267l0.358,0.219l0.479,0.197l0.388,0.36l0.333,0.34
	l0.302,0.338l0.271,0.34l0.244,0.342l0.207,0.34l0.18,0.347l0.146,0.347l0.111,0.349l0.082,0.348l0.048,0.351l0.021,0.35
	l-0.021,0.352l-0.048,0.348l-0.083,0.352l-0.118,0.356l-2.755,4.853l-8.365,1.173l36.728-0.057l-2.35-0.837l-1.604-1.086
	l-0.687-1.258l-0.131-2.66l-0.521-4.874l1.43-4.356l1.16-3.795l0.108-0.31l0.125-0.305l0.141-0.3l0.156-0.298l0.176-0.291
	l0.188-0.292l0.209-0.279l0.226-0.279l0.24-0.273l0.252-0.27l0.271-0.266l0.285-0.261l0.309-0.257l0.313-0.252l0.334-0.247
	l0.364-0.251l10.791-4.178l1.165-1.449l1.958-0.531l18.015-13.07l0.683-0.291l0.662-0.263l0.666-0.243l0.664-0.223l0.666-0.201
	l0.663-0.186l0.665-0.166l0.664-0.147l0.664-0.133l0.666-0.118l0.662-0.101l0.663-0.087l0.661-0.074l0.664-0.06l0.664-0.051
	l0.666-0.037l61.812-0.523l3.363,0.395l3.634,0.529l1.485,0.688l1.086,1.52l2.843,16.004l0.646,3.945l-0.644,9.002l0.511,1.16
	l0.385,4.419l1.526,1.811l0.411,1.12l-0.137,2.187l-1.11,1.684l-8.004,0.966l33.003,0.032c-0.068-0.367-0.111-0.732-0.15-1.104
	l-0.024-0.332l-0.015-0.327l-0.006-0.33l0.006-0.33l0.015-0.328l0.026-0.328l0.034-0.331l0.046-0.337L384.529,85l0.062-0.345
	l0.075-0.354l0.089-0.369l0.146-0.391l0.146-0.364l0.148-0.352l0.156-0.349l0.162-0.339l0.178-0.344l0.188-0.345l0.213-0.355
	l0.24-0.324l0.238-0.301l0.242-0.289l0.239-0.279l0.253-0.272l0.262-0.271l0.274-0.27l0.298-0.272l0.319-0.239l0.312-0.22
	l0.312-0.207l0.313-0.197l0.324-0.187l0.325-0.185l0.339-0.176l0.355-0.182l0.395-0.137l0.372-0.119l0.359-0.109l0.364-0.099
	l0.367-0.089l0.375-0.084l0.383-0.07l0.404-0.065l0.418-0.018l0.396-0.004h0.391l0.387,0.015l0.385,0.021l0.387,0.034l0.396,0.047
	l0.416,0.058l0.393,0.104l0.369,0.108l0.359,0.113l0.354,0.124l0.354,0.134l0.348,0.146l0.355,0.153l0.37,0.171l0.34,0.212
	l0.316,0.21l0.309,0.212l0.302,0.219l0.297,0.226l0.293,0.233l0.289,0.248l0.303,0.27l0.271,0.306l0.248,0.291l0.233,0.296
	l0.229,0.299l0.219,0.303l0.214,0.312l0.21,0.322l0.219,0.351l0.811,1.944l0.162,0.7l0.127,0.684l0.049,0.34l0.043,0.338
	l0.031,0.336l0.028,0.336l0.013,0.334v0.336l-0.007,0.337l-0.018,0.335l-0.026,0.334l-0.037,0.336l-0.056,0.337l-0.06,0.315v0.18
	h-0.438l0.057-0.238L404.832,89.264z M244.868,89.214l0.047-1.072l0.237-1.431l0.334-1.328l0.428-1.223l0.518-1.123l0.596-1.02
	l0.666-0.922l0.729-0.824l0.789-0.723l0.838-0.622l0.879-0.523l0.918-0.43l0.942-0.335l0.965-0.239l0.979-0.146l0.98-0.056
	l0.982,0.037l0.979,0.127l0.978,0.209l0.957,0.297l0.936,0.386l0.909,0.466l0.874,0.551l0.832,0.636l0.781,0.711l0.729,0.799
	l0.662,0.878l0.594,0.957l0.521,1.035l0.433,1.113l0.343,1.191l0.241,1.264l0.138,1.316l0.061,0.23h-0.441v-0.187l-0.136-1.305
	l-0.239-1.235l-0.328-1.154L266.1,84.44l-0.502-1.004l-0.57-0.929l-0.645-0.849l-0.704-0.769l-0.756-0.692l-0.803-0.611
	l-0.843-0.532l-0.879-0.451l-0.906-0.367l-0.928-0.287l-0.938-0.207l-0.946-0.121l-0.947-0.034l-0.947,0.054l-0.943,0.135
	l-0.93,0.227L252,78.325l-0.884,0.413l-0.847,0.506l-0.811,0.599l-0.761,0.698l-0.704,0.789l-0.641,0.89l-0.576,0.987l-0.498,1.093
	l-0.415,1.185l-0.327,1.297l-0.229,1.394l-0.045,1.034l0.053,0.219h-0.498l0.058-0.226L244.868,89.214L244.868,89.214z
	 M400.438,89.249l0.082-0.239l0.069-0.255l0.062-0.261l0.053-0.264l0.042-0.27l0.028-0.269l0.017-0.277l0.012-0.275l-0.032-0.631
	l-0.093-0.606l-0.146-0.584l-0.198-0.555l-0.257-0.528l-0.299-0.495l-0.346-0.46l-0.384-0.426l-0.426-0.386l-0.464-0.348
	l-0.486-0.298l-0.521-0.246l-0.549-0.199l-0.567-0.145l-0.587-0.092l-0.604-0.026l-0.604,0.027l-0.589,0.093l-0.57,0.145
	l-0.542,0.199l-0.517,0.246l-0.484,0.296l-0.456,0.344l-0.418,0.384l-0.384,0.427l-0.342,0.46l-0.295,0.494l-0.25,0.528
	l-0.201,0.556l-0.146,0.582l-0.09,0.608l-0.026,0.634l0.004,0.272l0.019,0.274l0.028,0.27l0.041,0.27l0.045,0.265l0.062,0.258
	l0.069,0.257l0.081,0.239l0.136,0.275h-0.463l-0.037-0.146l-0.077-0.254l-0.082-0.271l-0.064-0.276l-0.053-0.278l-0.043-0.282
	l-0.029-0.292l-0.018-0.29l-0.013-0.298l0.032-0.667l0.102-0.645l0.146-0.62l0.213-0.594l0.27-0.563l0.312-0.528l0.363-0.495
	l0.405-0.452l0.447-0.409l0.483-0.364l0.523-0.314l0.551-0.266l0.58-0.213l0.604-0.154l0.624-0.096l0.646-0.032l0.644,0.031
	l0.627,0.095l0.604,0.155l0.583,0.212l0.554,0.264l0.521,0.316l0.487,0.364l0.449,0.413l0.404,0.455l0.368,0.493l0.313,0.528
	l0.269,0.562l0.219,0.597l0.154,0.618l0.097,0.646l0.032,0.664l-0.007,0.298l-0.02,0.294l-0.031,0.29l-0.041,0.284l-0.059,0.276
	l-0.062,0.275l-0.079,0.272l-0.082,0.253l-0.032,0.145h-0.466l0.138-0.271L400.438,89.249L400.438,89.249z M128.736,89.148
	l-0.042-0.823l-0.12-0.796l-0.195-0.767l-0.267-0.735l-0.331-0.698l-0.397-0.658l-0.451-0.618l-0.513-0.57l-0.562-0.52l-0.604-0.46
	l-0.646-0.403l-0.691-0.34l-0.723-0.269l-0.754-0.198l-0.784-0.123l-0.806-0.04l-0.806,0.04l-0.784,0.123l-0.756,0.198l-0.726,0.269
	l-0.688,0.34l-0.646,0.403l-0.609,0.46l-0.559,0.52l-0.51,0.57l-0.454,0.618l-0.397,0.658l-0.332,0.698l-0.267,0.735l-0.194,0.767
	L113,88.325l-0.042,0.823v0.193h-0.454l0.058-0.229l0.042-0.822l0.127-0.838l0.205-0.804l0.275-0.773l0.354-0.734l0.416-0.692
	l0.476-0.649l0.538-0.6l0.587-0.542l0.642-0.484l0.684-0.424l0.725-0.354l0.764-0.281l0.792-0.209L120,80.778l0.842-0.046
	l0.852,0.046l0.816,0.128l0.795,0.209l0.762,0.281l0.726,0.354l0.685,0.424l0.639,0.484l0.59,0.542l0.534,0.6l0.479,0.649
	l0.415,0.692l0.354,0.734l0.274,0.773l0.206,0.804l0.126,0.838l0.039,0.822l0.089,0.318l-0.471-0.061v-0.223h-0.01v0.002H128.736z
	 M185.651,89.247l0.083-0.823l0.241-0.804l0.39-0.727l0.514-0.635l0.625-0.525l0.72-0.394l0.791-0.248l0.848-0.087l0.849,0.087
	l0.79,0.248l0.719,0.394l0.621,0.525l0.518,0.635l0.391,0.727l0.246,0.804l0.08,0.823l0.058,0.232h-0.439v-0.191l-0.082-0.788
	l-0.223-0.73l-0.354-0.658l-0.468-0.576l-0.568-0.477l-0.646-0.358l-0.719-0.228l-0.771-0.081l-0.768,0.081l-0.722,0.228
	l-0.646,0.358l-0.57,0.477l-0.469,0.576l-0.354,0.658l-0.223,0.73l-0.083,0.788v0.187h-0.442l0.06-0.23L185.651,89.247z
	 M197.759,89.288l-0.037-0.824L197.6,87.67l-0.196-0.77l-0.267-0.735l-0.332-0.7l-0.396-0.659l-0.456-0.616l-0.51-0.569
	l-0.562-0.519l-0.604-0.463l-0.647-0.402l-0.688-0.339l-0.728-0.27l-0.755-0.197l-0.789-0.125l-0.807-0.043l-0.805,0.043
	l-0.783,0.122l-0.757,0.197l-0.729,0.271l-0.687,0.339l-0.647,0.404L184.85,83.1l-0.562,0.518l-0.512,0.567l-0.455,0.616
	l-0.393,0.66l-0.333,0.699l-0.269,0.735l-0.196,0.768l-0.117,0.796l-0.042,0.822v0.192h-0.441l0.054-0.227l0.042-0.831l0.124-0.832
	l0.206-0.807l0.279-0.771l0.353-0.733l0.417-0.692l0.479-0.647l0.536-0.6l0.589-0.544l0.639-0.487l0.686-0.421l0.725-0.354
	l0.762-0.281l0.79-0.21l0.823-0.127l0.844-0.045l0.846,0.045l0.821,0.127l0.792,0.21l0.762,0.281l0.726,0.354l0.684,0.421
	l0.641,0.487l0.587,0.544l0.534,0.6l0.479,0.647l0.415,0.692l0.351,0.733l0.277,0.771l0.204,0.807l0.126,0.832l0.041,0.831
	l0.058,0.227h-0.438v-0.188h-0.012v0.003H197.759L197.759,89.288z M130.544,89.461l-0.122-1.307l-0.224-1.212l-0.32-1.119
	l-0.4-1.022l-0.487-0.934l-0.562-0.844l-0.629-0.756l-0.685-0.668l-0.743-0.576l-0.787-0.493l-0.823-0.414l-0.86-0.326l-0.882-0.248
	l-0.903-0.166l-0.915-0.083h-0.921l-0.917,0.083l-0.909,0.156l-0.891,0.233l-0.868,0.311l-0.837,0.39l-0.801,0.464l-0.758,0.532
	l-0.704,0.606l-0.646,0.681l-0.582,0.752l-0.51,0.818l-0.429,0.891l-0.348,0.958l-0.253,1.023l-0.154,1.093l-0.045,1.141
	l-0.391-0.008l0.049-1.171l0.16-1.135l0.265-1.064l0.359-0.998l0.448-0.927l0.528-0.854l0.606-0.782l0.672-0.71l0.73-0.631
	l0.783-0.555l0.831-0.48l0.866-0.402l0.9-0.322l0.927-0.246l0.938-0.165l0.948-0.084h0.955l0.948,0.084l0.939,0.165l0.918,0.253
	l0.891,0.342l0.855,0.427l0.818,0.517l0.772,0.605l0.718,0.691l0.653,0.789l0.584,0.877l0.504,0.973l0.423,1.08l0.331,1.152
	l0.229,1.248l0.125,1.317l-0.392,0.042L130.544,89.461z M199.923,89.38l-0.107-1.059l-0.246-1.208l-0.335-1.122l-0.414-1.031
	l-0.485-0.946l-0.554-0.861l-0.615-0.778l-0.667-0.69l-0.718-0.609l-0.758-0.529l-0.795-0.451l-0.826-0.364l-0.854-0.292
	l-0.865-0.209l-0.883-0.134l-0.886-0.055l-0.888,0.021l-0.879,0.1l-0.865,0.176l-0.851,0.244l-0.818,0.32l-0.792,0.395l-0.755,0.464
	l-0.709,0.541l-0.659,0.604l-0.601,0.682l-0.542,0.747l-0.479,0.82l-0.407,0.883l-0.319,0.954l-0.236,1.017l-0.146,1.09
	l-0.045,1.139l0.059,0.219h-0.496l0.055-0.226l0.046-1.163l0.149-1.127l0.243-1.058l0.333-0.985l0.418-0.925l0.49-0.85l0.566-0.78
	l0.632-0.708l0.69-0.636l0.737-0.56l0.781-0.483l0.82-0.412l0.853-0.329l0.884-0.257l0.896-0.182l0.913-0.104l0.918-0.021
	l0.921,0.058l0.916,0.14l0.898,0.216l0.885,0.306l0.854,0.38l0.828,0.47l0.787,0.55l0.747,0.636l0.694,0.722l0.639,0.807
	l0.571,0.893l0.505,0.978l0.43,1.071l0.348,1.154l0.255,1.242l0.134,1.165l-0.406-0.044L199.923,89.38z M264.746,89.083
	l-0.044-0.918l-0.136-0.889l-0.217-0.854l-0.298-0.824l-0.372-0.78l-0.441-0.74l-0.508-0.69l-0.569-0.638l-0.625-0.575l-0.681-0.518
	l-0.729-0.449l-0.77-0.38l-0.812-0.303l-0.842-0.224l-0.874-0.136l-0.898-0.047l-0.897,0.047l-0.878,0.136l-0.848,0.224
	l-0.812,0.303l-0.773,0.38l-0.731,0.449l-0.687,0.518l-0.635,0.575l-0.568,0.64l-0.516,0.687l-0.438,0.742l-0.371,0.78l-0.293,0.822
	l-0.209,0.858l-0.123,0.891l-0.029,0.891l0.059,0.219h-0.498l0.055-0.224l0.033-0.926l0.127-0.928l0.221-0.894l0.306-0.86
	l0.39-0.817l0.463-0.771l0.531-0.719l0.6-0.666l0.658-0.603l0.718-0.541l0.765-0.469l0.812-0.394l0.849-0.315l0.885-0.23
	l0.916-0.143l0.938-0.051l0.938,0.051l0.912,0.143l0.883,0.23l0.848,0.315l0.805,0.394l0.758,0.469l0.712,0.541l0.653,0.603
	l0.597,0.666l0.532,0.719l0.459,0.771l0.393,0.817l0.311,0.86l0.229,0.892l0.14,0.929l0.048,0.927l0.056,0.228h-0.438v-0.196
	L264.746,89.083z M344.639,89.388l-0.046-0.918l-0.14-0.889l-0.217-0.856l-0.299-0.822l-0.371-0.783l-0.441-0.742l-0.51-0.686
	l-0.565-0.641l-0.627-0.576l-0.682-0.518l-0.729-0.45l-0.771-0.377l-0.812-0.305l-0.841-0.222l-0.874-0.138l-0.899-0.046
	l-0.897,0.046l-0.872,0.138l-0.845,0.222l-0.812,0.305l-0.771,0.377l-0.729,0.45l-0.682,0.518l-0.629,0.576l-0.567,0.641
	l-0.508,0.686l-0.443,0.742l-0.367,0.779l-0.297,0.824l-0.224,0.858l-0.135,0.888l-0.048,0.918v0.192h-0.438l0.059-0.229
	l0.049-0.923l0.142-0.932l0.228-0.893l0.312-0.857l0.389-0.817l0.465-0.769l0.527-0.726l0.596-0.666l0.654-0.602l0.708-0.541
	l0.761-0.469l0.806-0.396l0.848-0.313l0.882-0.23l0.913-0.142l0.938-0.051l0.94,0.051l0.911,0.142l0.882,0.23l0.846,0.313
	l0.81,0.396l0.755,0.469l0.713,0.541l0.654,0.602l0.595,0.666l0.532,0.726l0.461,0.769l0.391,0.817l0.311,0.857l0.229,0.893
	l0.14,0.932l0.047,0.927l0.062,0.227h-0.444L344.639,89.388L344.639,89.388L344.639,89.388z M52.964,87.372l-3.371,0.06l-0.05-1.056
	h-4.619l-0.295,0.998l-9.074-0.059l-0.177-0.78l-0.131-0.496l-0.15-0.476l-0.183-0.468l-0.202-0.454l-0.224-0.444l-0.242-0.432
	l-0.267-0.424L33.69,82.93l-0.312-0.399l-0.33-0.396l-0.347-0.383l-0.372-0.375l-0.391-0.362l-0.41-0.355l-0.407-0.324l-0.476-0.228
	l-0.5-0.225l-0.497-0.199l-0.493-0.182l-0.483-0.158l-0.485-0.14l-0.479-0.116l-0.475-0.101l-0.469-0.078l-0.468-0.057l-0.459-0.038
	l-0.455-0.018h-0.449l-0.446,0.02l-0.442,0.042l-0.438,0.062l-0.434,0.082l-0.431,0.101l-0.423,0.12l-0.42,0.142l-0.415,0.159
	l-0.411,0.181l-0.407,0.2l-0.4,0.214l-0.397,0.237l-0.393,0.258l-0.392,0.276L18.7,81.187l-0.38,0.314l-0.374,0.334l-0.368,0.355
	l-0.979,1.006l0.116-6.372l0.729-1.155l0.196-0.462l0.254-0.478l0.294-0.449l0.333-0.425l0.371-0.396l0.4-0.366l0.445-0.341
	l0.486-0.318l0.576-0.291c0.752-0.372,1.506-0.737,2.265-1.09c0.76-0.354,1.526-0.694,2.302-1.011
	c0.589-0.241,1.174-0.475,1.759-0.699c0.594-0.228,1.192-0.435,1.791-0.642c0.599-0.206,1.215-0.395,1.819-0.577
	s1.232-0.352,1.853-0.516c0.618-0.162,1.26-0.306,1.889-0.446c0.642-0.135,1.276-0.257,1.924-0.371
	c0.646-0.116,1.306-0.206,1.966-0.294l1.354-0.151c0.443,0.021,0.892,0.05,1.344,0.089c0.562,0.054,1.125,0.125,1.687,0.211
	c0.548,0.082,1.094,0.185,1.64,0.292l1.966,3.268l0.546-0.772l-1.783-3.014l1.549-1.836l7.146,5.2l-1.441,1.736l-3.089-0.373
	l0.81,7.394l1.679,0.391l3.149-5.076l0.207-0.508l0.244-0.531l0.271-0.518l0.297-0.503l0.323-0.493l0.348-0.479l0.372-0.464
	l0.333-0.38l1.296-5.421l2.378,0.531l-0.726,3.5c0.599-0.225,1.21-0.41,1.821-0.593l0.602-0.154l0.591-0.134l0.584-0.112
	l0.585-0.096l0.58-0.074l0.577-0.055l0.568-0.032l0.566-0.015l0.567,0.005l0.56,0.021l0.557,0.041l0.553,0.06l0.549,0.083
	l0.543,0.094l0.541,0.117l0.536,0.131l0.533,0.148l0.523,0.165l0.525,0.187l0.52,0.199l0.521,0.219l0.514,0.229l0.51,0.248
	l0.503,0.267l0.503,0.279l0.499,0.296l0.495,0.31l0.789,0.52l-1.619,2.358l-1.374-0.688L73.5,72.148l-1.074-0.389l-1.061-0.315
	l-1.047-0.234l-1.03-0.167l-1.014-0.089l-0.99-0.022l-0.973,0.047L65.36,71.09l-0.923,0.179l-0.898,0.237l-0.865,0.304l-0.84,0.363
	l-0.811,0.417l-0.777,0.472l-0.745,0.53l-0.707,0.58l-0.673,0.636l-0.631,0.684l-0.592,0.732l-0.549,0.779l-0.512,0.82l-0.46,0.866
	l-0.411,0.906l-0.361,0.951l-0.313,0.989l-0.26,1.026l-0.204,1.062l-0.148,1.096l-0.093,1.129l-0.042,1.506l-0.456,0.007V87.01
	h0.118c0.011-12.728,10.706-20.546,22.631-14.164l1.244-1.809c-5.146-3.501-10.83-4.513-17.288-1.894l0.784-3.79l-1.708-0.382
	l-1.239,5.171c-1.037,1.12-1.854,2.431-2.396,3.867l-3.298,5.317l-2.153-0.488l-0.885-8.083l3.338,0.399l1.081-1.3l-6.579-4.79
	l-1.181,1.399l1.768,2.994l-0.979,1.401l-2.164-3.596c-1.469-0.301-2.949-0.485-4.441-0.552c-6.763,0.752-13.32,2.8-19.328,6.043
	c-1.21,0.684-2.148,1.778-2.65,3.092l-0.688,1.092l-0.096,5.391c3.94-4.192,8.831-5.044,14.339-2.297
	c2.312,1.648,3.929,4.123,4.522,6.933l8.542,0.052l0.297-0.998h5.202l0.05,1.054l3.043-0.052v0.352H52.964z M16.187,89.483
	l0.047-0.93l0.142-0.93l0.229-0.896l0.312-0.858l0.391-0.818l0.462-0.774l0.531-0.725l0.602-0.664l0.653-0.605l0.713-0.539
	l0.76-0.472l0.811-0.394l0.849-0.318l0.885-0.231l0.915-0.142l0.938-0.051l0.942,0.051l0.914,0.142l0.883,0.231l0.85,0.318
	l0.808,0.394l0.763,0.472l0.712,0.539l0.654,0.605l0.597,0.664l0.533,0.725l0.463,0.774l0.391,0.818l0.311,0.858l0.229,0.896
	l0.142,0.93l0.045,0.93l0.055,0.227h-0.438v-0.19l-0.049-0.923l-0.136-0.891l-0.218-0.86l-0.299-0.818L33.2,85.24l-0.445-0.742
	l-0.509-0.689l-0.571-0.64l-0.629-0.576l-0.682-0.517l-0.729-0.45l-0.771-0.385l-0.807-0.301L27.2,80.717l-0.875-0.136l-0.903-0.05
	l-0.897,0.05l-0.876,0.136L22.8,80.939l-0.81,0.301l-0.77,0.385l-0.732,0.45l-0.681,0.517l-0.633,0.576l-0.566,0.64l-0.51,0.689
	l-0.441,0.742l-0.375,0.788l-0.298,0.818l-0.222,0.86l-0.136,0.891l-0.046,0.923v0.192h-0.45L16.187,89.483L16.187,89.483z
	 M449.48,67.405l-0.489-0.282l-0.714-0.361l-0.728-0.33l-0.746-0.297l-0.76-0.266l-0.774-0.231l-0.789-0.199l-0.802-0.166
	l-0.812-0.128l-0.822-0.094l-0.832-0.057l-0.846-0.021l-0.967,0.025l-0.947,0.074l-0.936,0.118l-0.919,0.166l-0.908,0.214
	l-0.889,0.257l-0.866,0.304l-0.857,0.345l-0.827,0.386l-0.812,0.422l-0.783,0.458l-0.762,0.493l-0.735,0.532l-0.707,0.563
	l-0.685,0.601l-0.646,0.63l-0.621,0.664l-0.594,0.688l-0.56,0.724l-0.523,0.745l-0.482,0.773l-0.449,0.796l-0.418,0.825
	l-0.377,0.845l-0.335,0.863l-0.296,0.886l-0.254,0.903l-0.209,0.92l-0.167,0.933l-0.117,0.951l-0.071,0.967l-0.021,1.131
	c0.003,0.283,0.012,0.562,0.025,0.847h0.008v0.173c0,0.011,0,0.021,0,0.033l0.057,0.229h-0.06v0.068l-0.224-0.059l-13.352-0.637
	l-0.988,1.193l0.019,0.046h-0.052l-0.021,0.027h-0.121l-0.2-0.027h-0.048v-0.092l-0.058-0.023V85.83l0.031-0.033l-0.178-0.958
	l-0.293-1.036l-0.383-1.009l-0.47-0.977l-0.552-0.933l-0.623-0.891l-0.688-0.835l-0.763-0.772l-0.812-0.709l-0.865-0.634
	l-0.92-0.553l-0.959-0.471l-0.994-0.377l-1.022-0.272l-1.06-0.171l-1.075-0.06l-0.902,0.031l-0.894,0.099l-0.866,0.165l-0.851,0.223
	l-0.818,0.28l-0.794,0.337l-0.761,0.39l-0.729,0.444l-0.688,0.496l-0.646,0.541l-0.606,0.585l-0.556,0.631l-0.505,0.673
	l-0.455,0.707l-0.4,0.749l-0.31,0.715l0.011,0.066l-0.213,0.145l-0.083,0.012l-2.06-0.771l0.34-2.526h1.018l0.568-1.738l0.605-0.37
	l0.984,0.127l0.146-1.154l0.597-4.039l1.222-2.38l1.832-1.241l1.702-0.711l9.884-3.114l10.359-1.812
	c0.182-0.128,0.348-0.274,0.497-0.438l0.142-0.183l0.108-0.219l0.084-0.263l0.062-0.299c0.062-0.354,0.11-0.704,0.164-1.062
	l1.938-10.985l0.095-1.945l-0.49-1.096v-1.19l0.826-1.68l1.354-1.16l1.227-0.208l1.938-0.487L421,41.027l0.963-0.212l0.96-0.206
	l0.956-0.197l0.958-0.188l0.953-0.179l0.946-0.167l0.945-0.159l0.947-0.148l0.938-0.141l0.937-0.134l0.938-0.119l0.933-0.112
	l0.932-0.098l0.927-0.09l0.926-0.083l0.921-0.069l0.921-0.059l0.913-0.048l0.906-0.037l0.907-0.025l0.901-0.013h0.896l0.896,0.007
	l0.895,0.019l0.895,0.033l0.89,0.042l0.886,0.054l0.894,0.068l1.229,0.34l0.118,0.959l-0.202,1.326l-0.3,2.433l-1.334,2.811
	l-1.907,0.581l0.574,10.713l0.86,0.193l1.896,7.837c1.751,0.811,3.391,1.855,4.867,3.107l-0.304,0.197l-0.102,0.082l-0.612-0.493
	l-0.644-0.473l-0.651-0.444l-0.887-0.521L449.48,67.405z M447.788,69.972l0.67,0.345l0.647,0.371l0.632,0.402l0.606,0.431
	l0.588,0.456l0.563,0.486l0.54,0.51l0.52,0.536l0.486,0.561l0.461,0.582l0.436,0.602l0.404,0.627l0.377,0.646l0.344,0.665
	l0.312,0.685l0.282,0.696l0.243,0.72l0.207,0.728l0.178,0.741l0.143,0.761l0.097,0.77l0.062,0.782l0.021,0.79v0.377l-0.02,0.37
	l-0.021,0.366l-0.033,0.364l-0.084,0.725l-0.061,0.357l-0.062,0.357l-0.069,0.351l-0.083,0.351l-0.188,0.69l-0.213,0.676
	l-0.122,0.331l-0.12,0.315l-0.084,0.329l-0.352-0.358l0.083-0.119l0.229-0.628l0.21-0.658l0.188-0.672l0.081-0.34l0.07-0.346
	l0.062-0.344l0.057-0.353l0.048-0.353l0.036-0.351l0.03-0.357l0.021-0.357l0.016-0.359l0.005-0.364l-0.021-0.77l-0.059-0.764
	l-0.101-0.746l-0.138-0.742l-0.167-0.728l-0.204-0.712l-0.241-0.694l-0.271-0.684l-0.306-0.665l-0.336-0.647l-0.363-0.629
	l-0.396-0.608l-0.421-0.59l-0.452-0.567l-0.479-0.546l-0.5-0.524l-0.526-0.493l-0.556-0.473l-0.571-0.448l-0.593-0.418l-0.615-0.393
	l-0.636-0.363l-0.105-0.056l-0.018,0.024l-0.062-0.062l-0.468-0.241l-0.676-0.304l-0.687-0.268l-0.704-0.239l-0.723-0.2
	l-0.729-0.166l-0.746-0.135l-0.756-0.096l-0.769-0.058l-0.778-0.023l-0.777,0.023l-0.768,0.058l-0.76,0.096l-0.744,0.135
	l-0.729,0.166l-0.721,0.2l-0.704,0.239l-0.688,0.268l-0.672,0.304l-0.652,0.33l-0.634,0.364l-0.616,0.395L432,71.836l-0.568,0.446
	l-0.552,0.475l-0.524,0.491l-0.508,0.524l-0.478,0.548l-0.446,0.565l-0.426,0.592l-0.396,0.607l-0.361,0.63l-0.337,0.646
	l-0.304,0.664l-0.271,0.686l-0.236,0.691l-0.206,0.716l-0.172,0.727l-0.136,0.743l-0.098,0.747l-0.06,0.763l-0.021,0.771v0.349
	l0.021,0.35l0.021,0.348l0.062,0.688l0.091,0.675l0.128,0.67l0.151,0.657l0.187,0.645l0.216,0.635l0.105,0.291l0.073,0.119
	l-0.354,0.358l-0.077-0.332l-0.12-0.308l-0.218-0.651l-0.188-0.656l-0.081-0.34l-0.075-0.339l-0.129-0.687l-0.103-0.694
	l-0.062-0.705l-0.031-0.714v-0.359l0.021-0.789l0.062-0.783l0.104-0.77l0.136-0.76l0.175-0.74l0.212-0.731l0.243-0.715l0.278-0.699
	l0.31-0.683l0.35-0.666l0.378-0.646l0.402-0.627l0.437-0.604l0.461-0.579l0.484-0.562l0.52-0.533l0.538-0.513l0.566-0.483
	l0.586-0.458l0.61-0.432l0.63-0.4l0.649-0.371l0.666-0.342l0.688-0.311l0.705-0.276l0.724-0.243l0.737-0.208l0.75-0.174l0.761-0.133
	l0.78-0.102l0.784-0.061l0.802-0.02l0.799,0.02l0.787,0.061l0.772,0.102l0.768,0.133l0.752,0.174l0.734,0.208l0.722,0.243
	l0.705,0.276L447.788,69.972L447.788,69.972z M447.514,65.905l-1.886-7.458l-0.915-0.206l-0.604-11.318l2.035-0.622l1.228-2.597
	l0.297-2.375l0.188-1.278l-0.082-0.644l-0.938-0.262l-0.854-0.062l-0.88-0.056l-0.883-0.043l-0.889-0.03l-0.892-0.02l-0.892-0.006
	h-0.895l-0.896,0.015l-0.901,0.025l-0.904,0.034l-0.909,0.048l-0.911,0.06l-0.916,0.069l-0.918,0.083l-0.927,0.091l-0.931,0.1
	l-0.927,0.109l-0.935,0.122l-0.935,0.129l-0.938,0.14l-1.888,0.307l-0.942,0.165l-0.949,0.176l-0.951,0.188l-1.912,0.4l-0.96,0.214
	l-1.93,0.453l-1.944,0.49l-1.135,0.192l-1.212,1.041l-0.753,1.524v1.013l0.498,1.107l-0.104,2.064l-1.943,11.057
	c-0.054,0.341-0.104,0.682-0.158,1.018l-0.074,0.332L412.26,62l-0.139,0.28l-0.188,0.236l-0.319,0.306l-0.195,0.164l-0.129,0.076
	l-0.067,0.021l-10.342,1.801l-9.842,3.097l-1.646,0.689l-1.719,1.16l-1.146,2.232l-0.584,3.968l-0.201,1.538l-1.229-0.163
	l-0.373,0.226l-0.613,1.869h-0.959l-0.248,1.879l1.595,0.599l0.291-0.674l0.415-0.774l0.471-0.736l0.523-0.694l0.576-0.649
	l0.627-0.607l0.668-0.561l0.715-0.512l0.748-0.457l0.787-0.402l0.817-0.351l0.847-0.291l0.877-0.229l0.895-0.168l0.918-0.1
	l0.936-0.035l1.117,0.062l1.094,0.176l1.063,0.286l1.03,0.39l0.988,0.486l0.945,0.567l0.895,0.653l0.84,0.729l0.777,0.798
	l0.713,0.858l0.646,0.915l0.562,0.964l0.481,1.003l0.396,1.044l0.301,1.07l0.146,0.79l0.922-1.113l13.349,0.639
	c-0.021-0.349-0.023-0.697-0.023-1.044l0.021-0.993l0.075-0.988l0.12-0.972l0.171-0.958l0.212-0.938l0.259-0.924l0.302-0.9
	l0.35-0.883l0.383-0.86l0.424-0.838l0.458-0.814l0.499-0.79l0.535-0.76l0.569-0.734l0.599-0.707l0.64-0.675l0.662-0.642l0.692-0.613
	l0.724-0.575l0.751-0.546l0.777-0.503l0.8-0.47l0.825-0.43l0.849-0.392l0.867-0.351l0.894-0.305l0.9-0.263l0.929-0.219l0.938-0.169
	l0.956-0.125l0.972-0.077l0.981-0.026l0.858,0.02l0.852,0.061l0.842,0.095l0.832,0.132l0.815,0.165l0.805,0.203l0.791,0.239
	l1.32,0.408v0.011H447.514z M27.356,86.005l0.483,0.337l0.434,0.402l0.368,0.465l0.298,0.515l0.22,0.561l0.143,0.599l0.047,0.597
	l0.057,0.228h-0.439V89.52l-0.044-0.578l-0.125-0.537L28.6,87.899l-0.272-0.467l-0.331-0.418l-0.39-0.365l-0.438-0.305l-0.434-0.223
	l-0.332-0.114c-0.229-0.067-0.455-0.115-0.688-0.141l-0.171-0.012l-0.166-0.003l-0.539,0.028l-0.188,0.046l-0.673,0.214
	l-0.613,0.337l-0.534,0.447l-0.438,0.542l-0.331,0.62l-0.211,0.686l-0.073,0.74v0.188h-0.44l0.061-0.229l0.082-0.778l0.229-0.763
	l0.368-0.684l0.486-0.601l0.59-0.497l0.678-0.374l0.749-0.236l0.412-0.056l0.382-0.025l0.199,0.004l0.187,0.012l0.189,0.029
	l0.183,0.026c0.197,0.044,0.395,0.102,0.582,0.166l0.13,0.048l0.526,0.265L27.356,86.005L27.356,86.005L27.356,86.005z
	 M63.772,89.52l-0.332-0.407l-0.312-0.455l-0.266-0.481l-0.222-0.506l-0.183-0.527l-0.13-0.55l-0.082-0.568l-0.026-0.583
	l0.029-0.621l0.091-0.606l0.149-0.582l0.204-0.562l0.253-0.531l0.3-0.507l0.353-0.469l0.39-0.434l0.426-0.397l0.464-0.352
	l0.497-0.305l0.522-0.262l0.554-0.205l0.572-0.149l0.597-0.094l0.614-0.03l0.612,0.03l0.597,0.096l0.575,0.149l0.553,0.205
	l0.524,0.262l0.492,0.304l0.466,0.352l0.427,0.397l0.389,0.433l0.349,0.47l0.304,0.507l0.252,0.531l0.206,0.562l0.146,0.582
	l0.096,0.606l0.026,0.62l-0.023,0.566l-0.078,0.55l-0.122,0.537l-0.169,0.515l-0.209,0.493l-0.252,0.472l-0.29,0.446l-0.311,0.394
	l-0.11,0.228l-0.324-0.332l0.13-0.13l0.305-0.39l0.271-0.416l0.235-0.442l0.193-0.461l0.158-0.482l0.118-0.497l0.065-0.516
	l0.024-0.53l-0.029-0.583L73.748,84.3l-0.143-0.547l-0.188-0.523l-0.236-0.495l-0.282-0.475l-0.324-0.437l-0.363-0.408l-0.396-0.367
	l-0.438-0.33l-0.464-0.288l-0.491-0.239l-0.515-0.19l-0.539-0.142l-0.56-0.087l-0.571-0.03l-0.572,0.03l-0.56,0.087l-0.538,0.142
	l-0.52,0.19L65.56,80.43l-0.464,0.288l-0.436,0.33l-0.397,0.367L63.9,81.823l-0.322,0.437l-0.284,0.475l-0.235,0.495l-0.188,0.523
	l-0.14,0.547l-0.084,0.565l-0.03,0.583l0.024,0.544l0.072,0.53l0.122,0.516L63,87.533l0.211,0.474l0.249,0.449l0.287,0.427
	l0.325,0.396l0.324,0.33h-0.567l-0.052-0.081h-0.004v-0.005h0.001L63.772,89.52L63.772,89.52z"/>
<g id="Header">
	<g>
		<path fill="#FFFFFF" d="M33.624,31.938h-3.829l-1.521-3.96h-6.969l-1.438,3.96h-3.734l6.79-17.434h3.725L33.624,31.938z
			 M27.143,25.039l-2.4-6.47l-2.354,6.47H27.143z"/>
		<path fill="#FFFFFF" d="M35.468,14.504h3.521v9.44c0,1.499,0.043,2.472,0.134,2.915c0.148,0.713,0.508,1.287,1.072,1.719
			c0.563,0.43,1.344,0.646,2.325,0.646c1,0,1.752-0.206,2.259-0.612c0.511-0.407,0.812-0.909,0.916-1.504
			c0.104-0.596,0.155-1.582,0.155-2.961v-9.646h3.521v9.156c0,2.094-0.095,3.572-0.285,4.436c-0.188,0.865-0.542,1.594-1.055,2.188
			c-0.512,0.594-1.193,1.067-2.051,1.423c-0.854,0.352-1.977,0.527-3.354,0.527c-1.666,0-2.931-0.191-3.789-0.576
			c-0.856-0.384-1.539-0.886-2.039-1.499c-0.5-0.614-0.828-1.258-0.985-1.932c-0.229-1-0.347-2.474-0.347-4.427V14.5h0.006v0.004
			H35.468z"/>
		<path fill="#FFFFFF" d="M57.005,31.938V17.451h-5.172v-2.947h13.854v2.947h-5.161v14.485L57.005,31.938L57.005,31.938z"/>
		<path fill="#FFFFFF" d="M66.804,23.33c0-1.777,0.265-3.268,0.797-4.474c0.396-0.89,0.938-1.687,1.622-2.392
			c0.687-0.705,1.438-1.229,2.254-1.569c1.086-0.459,2.338-0.688,3.758-0.688c2.569,0,4.625,0.795,6.167,2.39
			c1.543,1.594,2.312,3.81,2.312,6.647c0,2.814-0.764,5.016-2.294,6.606c-1.527,1.59-3.573,2.384-6.138,2.384
			c-2.594,0-4.653-0.791-6.186-2.373C67.569,28.28,66.804,26.103,66.804,23.33z M70.431,23.209c0,1.976,0.455,3.473,1.364,4.492
			c0.913,1.018,2.07,1.527,3.476,1.527c1.4,0,2.556-0.505,3.454-1.516c0.896-1.01,1.352-2.527,1.352-4.549
			c0-1.998-0.438-3.49-1.312-4.474c-0.875-0.981-2.039-1.474-3.491-1.474c-1.451,0-2.62,0.496-3.508,1.492
			C70.875,19.703,70.431,21.203,70.431,23.209z"/>
		<path fill="#FFFFFF" d="M92.824,27.289v-3.341h6.564v3.341H92.824z"/>
		<path fill="#FFFFFF" d="M112.031,31.938V17.451h-5.172v-2.947h13.854v2.947h-5.161v14.485L112.031,31.938L112.031,31.938z"/>
		<path fill="#FFFFFF" d="M122.997,31.938V14.504h7.407c1.862,0,3.22,0.156,4.062,0.47c0.849,0.313,1.521,0.87,2.029,1.67
			c0.505,0.801,0.761,1.717,0.761,2.747c0,1.308-0.385,2.388-1.151,3.24c-0.771,0.854-1.918,1.391-3.449,1.612
			c0.763,0.444,1.39,0.931,1.888,1.464c0.496,0.53,1.163,1.474,2.003,2.828l2.129,3.402h-4.21l-2.543-3.792
			c-0.901-1.354-1.521-2.209-1.854-2.563c-0.333-0.352-0.688-0.593-1.061-0.725c-0.371-0.128-0.964-0.195-1.771-0.195h-0.713v7.279
			H123L122.997,31.938L122.997,31.938z M126.515,21.877h2.604c1.688,0,2.742-0.071,3.164-0.213c0.42-0.143,0.749-0.388,0.985-0.736
			c0.235-0.348,0.354-0.785,0.354-1.309c0-0.587-0.156-1.06-0.471-1.421c-0.312-0.36-0.756-0.589-1.326-0.683
			c-0.284-0.039-1.143-0.059-2.564-0.059h-2.749L126.515,21.877L126.515,21.877z"/>
		<path fill="#FFFFFF" d="M156.295,31.938h-3.829l-1.521-3.96h-6.969l-1.438,3.96H138.8l6.79-17.434h3.727L156.295,31.938z
			 M149.814,25.039l-2.399-6.47l-2.354,6.47H149.814z"/>
		<path fill="#FFFFFF" d="M158.21,31.938V14.504h3.521v7.742l7.11-7.742h4.732l-6.565,6.789l6.924,10.644h-4.558l-4.792-8.183
			l-2.854,2.914v5.269L158.21,31.938L158.21,31.938z"/>
		<path fill="#FFFFFF" d="M179.676,31.938V17.451h-5.174v-2.947h13.854v2.947h-5.162v14.485L179.676,31.938L179.676,31.938z"/>
		<path fill="#FFFFFF" d="M189.474,23.33c0-1.777,0.269-3.268,0.796-4.474c0.396-0.89,0.938-1.687,1.624-2.392
			s1.438-1.229,2.254-1.569c1.085-0.459,2.338-0.688,3.756-0.688c2.569,0,4.625,0.795,6.167,2.39
			c1.542,1.594,2.312,3.81,2.312,6.647c0,2.814-0.767,5.016-2.295,6.606c-1.527,1.589-3.573,2.384-6.136,2.384
			c-2.596,0-4.654-0.791-6.186-2.373C190.24,28.28,189.474,26.103,189.474,23.33z M193.102,23.209c0,1.976,0.455,3.473,1.369,4.492
			c0.908,1.018,2.065,1.527,3.473,1.527c1.403,0,2.556-0.505,3.453-1.516c0.897-1.01,1.352-2.527,1.352-4.549
			c0-1.998-0.438-3.49-1.312-4.474c-0.878-0.981-2.042-1.474-3.49-1.474c-1.449,0-2.62,0.496-3.51,1.492
			C193.546,19.703,193.102,21.203,193.102,23.209z"/>
		<path fill="#FFFFFF" d="M209.147,31.938V14.504h7.409c1.861,0,3.216,0.156,4.062,0.47c0.844,0.313,1.521,0.87,2.025,1.67
			c0.508,0.801,0.761,1.717,0.761,2.747c0,1.308-0.384,2.388-1.151,3.24c-0.771,0.854-1.919,1.391-3.446,1.612
			c0.76,0.444,1.39,0.931,1.885,1.464c0.496,0.53,1.164,1.474,2.004,2.828l2.127,3.402h-4.208l-2.546-3.792
			c-0.902-1.354-1.521-2.209-1.854-2.563c-0.334-0.352-0.688-0.593-1.062-0.725c-0.372-0.128-0.963-0.195-1.771-0.195h-0.712v7.279
			h-3.521L209.147,31.938L209.147,31.938z M212.667,21.877h2.604c1.688,0,2.744-0.071,3.164-0.213
			c0.42-0.143,0.748-0.388,0.984-0.736c0.238-0.348,0.354-0.785,0.354-1.309c0-0.587-0.154-1.06-0.47-1.421
			c-0.312-0.36-0.758-0.589-1.324-0.683c-0.285-0.039-1.145-0.059-2.568-0.059h-2.746L212.667,21.877L212.667,21.877z"/>
		<path fill="#FFFFFF" d="M233.087,27.289v-3.341h6.562v3.341H233.087z"/>
	</g>
	<g>
		<path fill="#FFFFFF" d="M251.042,14.504h6.972c1.381,0,2.407,0.057,3.088,0.17c0.678,0.117,1.28,0.355,1.816,0.72
			c0.535,0.366,0.979,0.853,1.337,1.458c0.354,0.607,0.536,1.287,0.536,2.041c0,0.816-0.219,1.564-0.66,2.247
			c-0.438,0.684-1.035,1.194-1.79,1.536c1.062,0.308,1.884,0.836,2.45,1.582c0.57,0.746,0.854,1.619,0.854,2.627
			c0,0.794-0.187,1.564-0.555,2.315c-0.367,0.748-0.871,1.347-1.513,1.796c-0.64,0.448-1.425,0.723-2.356,0.826
			c-0.589,0.062-2.002,0.104-4.246,0.121h-5.938L251.042,14.504L251.042,14.504z M254.564,17.405v4.032h2.311
			c1.371,0,2.227-0.02,2.559-0.061c0.604-0.071,1.073-0.279,1.424-0.625c0.344-0.344,0.52-0.797,0.52-1.362
			c0-0.539-0.146-0.978-0.443-1.314c-0.301-0.336-0.74-0.542-1.326-0.612c-0.354-0.039-1.354-0.061-3.012-0.061h-2.021
			L254.564,17.405L254.564,17.405z M254.564,24.338V29h3.258c1.27,0,2.072-0.035,2.416-0.106c0.521-0.095,0.947-0.326,1.277-0.696
			c0.328-0.367,0.49-0.861,0.49-1.48c0-0.523-0.126-0.967-0.382-1.332c-0.252-0.365-0.62-0.633-1.103-0.797
			c-0.479-0.164-1.521-0.25-3.121-0.25L254.564,24.338L254.564,24.338z"/>
		<path fill="#FFFFFF" d="M268.632,31.938V14.504h7.409c1.861,0,3.217,0.156,4.062,0.47c0.845,0.314,1.521,0.87,2.023,1.67
			c0.509,0.8,0.764,1.717,0.764,2.747c0,1.308-0.386,2.388-1.152,3.24c-0.769,0.854-1.918,1.391-3.447,1.612
			c0.761,0.444,1.393,0.931,1.886,1.464c0.494,0.53,1.162,1.474,2.007,2.828l2.129,3.402h-4.211l-2.545-3.792
			c-0.904-1.354-1.523-2.209-1.854-2.563c-0.333-0.352-0.687-0.593-1.06-0.725c-0.373-0.128-0.963-0.195-1.771-0.195h-0.713v7.279
			h-3.521L268.632,31.938L268.632,31.938z M272.152,21.877h2.604c1.688,0,2.744-0.071,3.164-0.213
			c0.42-0.143,0.75-0.388,0.987-0.736c0.234-0.348,0.355-0.785,0.355-1.309c0-0.587-0.158-1.06-0.474-1.421
			c-0.312-0.36-0.755-0.589-1.325-0.683c-0.285-0.039-1.143-0.059-2.564-0.059h-2.75L272.152,21.877L272.152,21.877z"/>
		<path fill="#FFFFFF" d="M286.21,31.938V14.504h12.929v2.947h-9.408v3.865h8.752v2.938h-8.752v4.744h9.74v2.938H286.21V31.938z"/>
		<path fill="#FFFFFF" d="M306.38,31.938V17.451h-5.175v-2.947h13.855v2.947h-5.164v14.485L306.38,31.938L306.38,31.938z"/>
		<path fill="#FFFFFF" d="M316.439,26.267l3.425-0.333c0.206,1.15,0.625,1.992,1.255,2.533c0.629,0.539,1.48,0.81,2.555,0.81
			c1.135,0,1.984-0.241,2.562-0.72s0.861-1.041,0.861-1.682c0-0.412-0.123-0.766-0.363-1.056c-0.243-0.289-0.663-0.542-1.267-0.755
			c-0.413-0.143-1.354-0.396-2.817-0.761c-1.887-0.47-3.211-1.044-3.973-1.728c-1.07-0.957-1.605-2.127-1.605-3.509
			c0-0.887,0.25-1.716,0.756-2.491c0.502-0.772,1.229-1.361,2.179-1.766c0.943-0.403,2.093-0.605,3.433-0.605
			c2.188,0,3.834,0.479,4.938,1.438c1.104,0.96,1.688,2.24,1.741,3.843l-3.521,0.153c-0.149-0.895-0.479-1.54-0.97-1.932
			c-0.494-0.394-1.235-0.588-2.229-0.588c-1.021,0-1.824,0.209-2.401,0.631c-0.371,0.269-0.562,0.629-0.562,1.08
			c0,0.412,0.176,0.764,0.521,1.06c0.443,0.373,1.521,0.762,3.234,1.165c1.712,0.404,2.979,0.824,3.798,1.255
			c0.819,0.433,1.463,1.021,1.931,1.772c0.463,0.748,0.691,1.674,0.691,2.776c0,1-0.275,1.935-0.833,2.808
			c-0.556,0.873-1.341,1.521-2.354,1.943c-1.02,0.424-2.277,0.637-3.792,0.637c-2.204,0-3.897-0.51-5.077-1.527
			C317.372,29.698,316.673,28.215,316.439,26.267z"/>
		<path fill="#FFFFFF" d="M344.734,25.529l3.412,1.08c-0.523,1.903-1.394,3.319-2.611,4.241c-1.217,0.923-2.762,1.384-4.633,1.384
			c-2.312,0-4.217-0.791-5.707-2.373c-1.491-1.582-2.231-3.744-2.231-6.486c0-2.903,0.744-5.156,2.244-6.761
			c1.498-1.605,3.474-2.409,5.911-2.409c2.138,0,3.863,0.629,5.195,1.892c0.793,0.747,1.388,1.815,1.785,3.211l-3.484,0.833
			c-0.205-0.904-0.637-1.618-1.29-2.141c-0.65-0.523-1.446-0.785-2.384-0.785c-1.293,0-2.342,0.464-3.146,1.391
			c-0.809,0.928-1.207,2.432-1.207,4.507c0,2.204,0.396,3.774,1.188,4.71c0.796,0.936,1.826,1.404,3.094,1.404
			c0.938,0,1.74-0.296,2.414-0.891C343.952,27.739,344.438,26.804,344.734,25.529z"/>
		<path fill="#FFFFFF" d="M351.177,31.938V14.504h3.521v6.862h6.897v-6.862h3.52v17.434h-3.52v-7.623h-6.897v7.623H351.177z"/>
		<path fill="#FFFFFF" d="M368.79,31.938V14.504h3.429l7.137,11.642V14.504h3.271v17.434h-3.529l-7.029-11.369v11.369H368.79z"/>
		<path fill="#FFFFFF" d="M386.346,31.938V14.504h12.924v2.947h-9.405v3.865h8.752v2.938h-8.752v4.744h9.739v2.938h-13.258V31.938z"
			/>
		<path fill="#FFFFFF" d="M402.482,31.938V14.504h3.521v17.434H402.482z"/>
		<path fill="#FFFFFF" d="M409.345,14.504h6.433c1.453,0,2.562,0.11,3.318,0.332c1.021,0.304,1.896,0.838,2.63,1.607
			c0.729,0.768,1.283,1.711,1.666,2.824c0.378,1.113,0.57,2.486,0.57,4.123c0,1.433-0.184,2.67-0.535,3.709
			c-0.438,1.269-1.062,2.294-1.867,3.082c-0.609,0.593-1.438,1.057-2.475,1.39c-0.774,0.245-1.813,0.368-3.116,0.368h-6.624V14.504z
			 M412.865,17.455v11.547h2.627c0.984,0,1.693-0.057,2.129-0.168c0.57-0.142,1.043-0.384,1.421-0.725
			c0.382-0.339,0.688-0.9,0.928-1.682c0.233-0.78,0.354-1.846,0.354-3.192c0-1.349-0.118-2.383-0.354-3.104
			c-0.237-0.723-0.571-1.284-1-1.689c-0.434-0.402-0.976-0.676-1.628-0.82c-0.492-0.111-1.455-0.164-2.896-0.164h-1.581V17.455
			L412.865,17.455z"/>
		<path fill="#FFFFFF" d="M426.945,31.938V14.504h12.927v2.947h-9.402v3.865h8.754v2.938h-8.754v4.744h9.736v2.938h-13.261V31.938
			L426.945,31.938z"/>
		<path fill="#FFFFFF" d="M443.202,31.938V14.504h7.409c1.863,0,3.216,0.156,4.062,0.47c0.844,0.313,1.519,0.87,2.023,1.67
			c0.507,0.801,0.765,1.717,0.765,2.747c0,1.308-0.389,2.388-1.154,3.24c-0.766,0.854-1.918,1.391-3.446,1.612
			c0.762,0.444,1.396,0.931,1.883,1.464c0.498,0.53,1.164,1.474,2.005,2.828l2.133,3.402h-4.207l-2.551-3.792
			c-0.899-1.354-1.521-2.209-1.854-2.563c-0.336-0.352-0.688-0.593-1.061-0.725c-0.373-0.128-0.969-0.195-1.771-0.195h-0.715v7.279
			h-3.521L443.202,31.938L443.202,31.938z M446.721,21.877h2.604c1.688,0,2.74-0.071,3.162-0.213
			c0.419-0.143,0.749-0.388,0.987-0.736c0.236-0.348,0.354-0.785,0.354-1.309c0-0.587-0.151-1.06-0.469-1.421
			c-0.312-0.36-0.757-0.589-1.325-0.683c-0.28-0.039-1.141-0.059-2.564-0.059h-2.748L446.721,21.877L446.721,21.877z"/>
	</g>
</g>
<text transform="matrix(1 0 0 1 14.7041 145.0088)" fill="#FFFFFF" font-family="'ArialMT'" font-size="11">Inh. Jan Bretschneider</text>
<g id="_x33__Liner">
	<path fill="#FFFFFF" d="M381.005,115.907h2.175v-3.905h6.795v3.905h2.192v-9.078h-2.192v3.519h-6.795v-3.519h-2.175V115.907z
		 M398.727,112.916l1.723-3.096l1.792,3.096H398.727z M395.104,115.907h1.869l0.959-1.638h5.075l0.962,1.638h2.1l-4.62-7.443h-1.796
		L395.104,115.907z M407.969,115.907h1.704v-5.015l6.484,5.015h1.29v-7.443h-1.684v4.945l-6.508-4.945h-1.287V115.907
		L407.969,115.907z M420.874,115.907h4.694c1.333,0.093,2.662-0.231,3.803-0.929c0.867-0.666,1.347-1.729,1.269-2.817
		c0.021-0.697-0.156-1.386-0.519-1.981c-0.367-0.572-0.908-1.015-1.546-1.266c-0.809-0.319-1.67-0.471-2.541-0.449h-5.163
		L420.874,115.907L420.874,115.907z M422.761,114.52v-4.713h3.298c0.711-0.056,1.42,0.144,2.002,0.553
		c0.471,0.442,0.714,1.076,0.66,1.722c0.018,0.405-0.062,0.815-0.22,1.192c-0.146,0.312-0.372,0.574-0.663,0.754
		c-0.347,0.197-0.724,0.328-1.109,0.392c-0.517,0.08-1.034,0.116-1.558,0.104L422.761,114.52z M433.451,115.907h8.317v-1.39h-6.432
		v-1.832h3.691V111.4h-3.691v-1.612h6.345v-1.32h-8.229L433.451,115.907L433.451,115.907L433.451,115.907z M444.469,115.907h7.897
		v-1.39h-6.018v-6.058h-1.884L444.469,115.907L444.469,115.907z"/>
	<path fill="#FFFFFF" d="M389.354,138.85v1.036l1.863-0.438v-0.193c0.021-0.415-0.056-0.831-0.226-1.21
		c-0.148-0.292-0.407-0.511-0.724-0.611c-0.422-0.129-0.863-0.188-1.306-0.166h-5.155c-0.356-0.01-0.719,0.022-1.066,0.094
		c-0.258,0.052-0.497,0.164-0.693,0.338c-0.188,0.181-0.312,0.404-0.373,0.656c-0.085,0.347-0.122,0.699-0.111,1.06v1.002
		c-0.013,0.354,0.026,0.709,0.111,1.056c0.061,0.254,0.188,0.479,0.373,0.655c0.195,0.174,0.438,0.288,0.693,0.337
		c0.354,0.073,0.71,0.104,1.066,0.098h5.666v2.074h-6.423v-1.066l-1.862,0.392v0.245c-0.01,0.354,0.028,0.709,0.113,1.057
		c0.062,0.252,0.192,0.479,0.381,0.658c0.2,0.172,0.44,0.286,0.701,0.336c0.354,0.073,0.712,0.105,1.071,0.1h5.614
		c0.361,0.01,0.728-0.021,1.078-0.1c0.256-0.05,0.498-0.164,0.694-0.336c0.187-0.179,0.318-0.406,0.384-0.658
		c0.086-0.345,0.125-0.699,0.112-1.057v-1.25c0.015-0.354-0.022-0.709-0.112-1.057c-0.062-0.254-0.197-0.479-0.384-0.657
		c-0.196-0.173-0.438-0.287-0.694-0.337c-0.354-0.073-0.717-0.105-1.078-0.098H383.4v-1.951L389.354,138.85z M395.052,146.345h8.077
		v-1.393h-6.246v-1.829h3.59v-1.282h-3.59v-1.614h6.156v-1.317h-7.984L395.052,146.345L395.052,146.345z M405.749,146.345h1.799
		v-2.812h1.701l3.114,2.812h2.606l-3.538-2.812h1.021c0.47,0.036,0.932-0.077,1.319-0.331c0.307-0.277,0.465-0.686,0.425-1.098
		v-1.761c0.042-0.415-0.118-0.827-0.425-1.11c-0.387-0.254-0.854-0.373-1.319-0.332h-6.703v7.442V146.345L405.749,146.345z
		 M411.677,140.188c0.153-0.006,0.31,0.014,0.46,0.045c0.105,0.023,0.208,0.088,0.271,0.184c0.072,0.107,0.104,0.244,0.097,0.375
		v0.859c0.009,0.135-0.022,0.265-0.097,0.375c-0.063,0.092-0.165,0.152-0.271,0.18c-0.152,0.031-0.307,0.051-0.46,0.047h-4.133
		v-2.062h4.133V140.188z M420.02,146.345h1.246l4.311-7.438h-1.881l-2.977,5.396l-3.146-5.396h-2.062l4.503,7.438H420.02
		L420.02,146.345z M427.656,146.345h1.812v-7.438h-1.812V146.345z M439.304,140.273v1.375l1.829-0.27v-0.721
		c0.021-0.37-0.04-0.74-0.185-1.084c-0.114-0.254-0.339-0.449-0.604-0.533c-0.377-0.107-0.771-0.158-1.165-0.146h-4.646
		c-0.391-0.018-0.782,0.035-1.157,0.147c-0.271,0.086-0.486,0.283-0.606,0.539c-0.132,0.342-0.188,0.707-0.17,1.071v3.926
		c-0.021,0.361,0.038,0.729,0.17,1.064c0.116,0.254,0.334,0.448,0.598,0.539c0.377,0.118,0.772,0.17,1.165,0.15h4.646
		c0.395,0.02,0.787-0.032,1.162-0.146c0.27-0.086,0.487-0.281,0.605-0.537c0.145-0.342,0.199-0.707,0.185-1.073V143.7l-1.829-0.37
		v1.583h-4.896v-4.646L439.304,140.273L439.304,140.273z M444.107,146.345h8.076v-1.393h-6.248v-1.829h3.592v-1.282h-3.592v-1.614
		h6.16v-1.317h-7.988V146.345L444.107,146.345L444.107,146.345z"/>
	<path fill="#FFFFFF" d="M359.177,176.77h2.075v-3.433h2.004l3.661,3.433h3.024l-4.188-3.433h1.195
		c0.392,0.013,0.775-0.047,1.146-0.176c0.283-0.103,0.521-0.302,0.671-0.563c0.162-0.312,0.238-0.666,0.223-1.021v-2.126
		c0.021-0.354-0.061-0.705-0.223-1.02c-0.15-0.266-0.388-0.465-0.671-0.562c-0.368-0.133-0.757-0.191-1.146-0.178h-7.775
		L359.177,176.77L359.177,176.77z M365.999,169.257c0.185-0.007,0.36,0.011,0.538,0.052c0.126,0.031,0.238,0.107,0.314,0.217
		c0.076,0.143,0.112,0.299,0.103,0.455v1.095c0.013,0.153-0.022,0.312-0.103,0.448c-0.074,0.11-0.188,0.188-0.314,0.222
		c-0.178,0.042-0.354,0.06-0.538,0.05h-4.745v-2.534L365.999,169.257L365.999,169.257z M372.28,176.77h8.081v-1.389h-6.25v-1.833
		h3.589v-1.282h-3.589v-1.619h6.16v-1.316h-7.991V176.77L372.28,176.77z M388.912,170.611c0.152-0.006,0.311,0.013,0.455,0.047
		c0.111,0.023,0.208,0.085,0.275,0.18c0.07,0.113,0.104,0.243,0.094,0.375v0.773c0.01,0.133-0.021,0.264-0.094,0.375
		c-0.067,0.09-0.166,0.154-0.275,0.179c-0.146,0.036-0.303,0.051-0.455,0.047h-4.137v-1.969L388.912,170.611z M382.979,176.77h1.795
		v-2.898h4.91c0.463,0.041,0.928-0.076,1.319-0.331c0.308-0.284,0.463-0.692,0.421-1.11v-1.652c0.016-0.291-0.049-0.584-0.186-0.846
		c-0.133-0.218-0.338-0.381-0.577-0.455c-0.316-0.106-0.647-0.152-0.981-0.145h-6.701V176.77L382.979,176.77z M395.436,173.779
		l1.67-3.098l1.74,3.098H395.436z M391.914,176.77h1.812l0.933-1.639h4.929l0.934,1.639h2.039l-4.485-7.439h-1.735l-4.417,7.439
		H391.914z M404.408,176.77h1.795v-2.812h1.706l3.114,2.812h2.604l-3.537-2.812h1.02c0.466,0.042,0.93-0.076,1.322-0.33
		c0.308-0.273,0.463-0.688,0.422-1.1v-1.758c0.041-0.42-0.117-0.828-0.422-1.11c-0.391-0.257-0.856-0.372-1.322-0.329h-6.698v7.439
		H404.408L404.408,176.77z M410.331,170.609c0.153-0.006,0.312,0.012,0.458,0.047c0.109,0.021,0.207,0.086,0.275,0.18
		c0.07,0.114,0.104,0.243,0.094,0.377v0.86c0.009,0.131-0.021,0.263-0.094,0.376c-0.068,0.087-0.166,0.152-0.275,0.176
		c-0.148,0.036-0.305,0.051-0.458,0.047h-4.133v-2.054L410.331,170.609z M417.589,173.779l1.671-3.098l1.736,3.098H417.589z
		 M414.07,176.77h1.812l0.935-1.639h4.924l0.936,1.639h2.041l-4.486-7.439h-1.741L414.07,176.77L414.07,176.77z M430.01,170.663
		h3.604v-1.335h-9.006v1.336h3.588v6.105h1.812v-6.105L430.01,170.663z M437.767,169.328h-1.812v5.684
		c-0.021,0.365,0.041,0.731,0.177,1.073c0.115,0.254,0.336,0.452,0.604,0.54c0.373,0.115,0.764,0.162,1.156,0.146h4.93
		c0.395,0.017,0.785-0.031,1.165-0.146c0.269-0.088,0.486-0.286,0.606-0.54c0.141-0.34,0.194-0.708,0.181-1.073v-5.684h-1.83v6.054
		h-5.178V169.328L437.767,169.328z M448.076,176.77h1.796v-2.812h1.703l3.116,2.812h2.604l-3.536-2.812h1.021
		c0.466,0.04,0.929-0.079,1.321-0.33c0.308-0.273,0.462-0.688,0.424-1.1v-1.758c0.042-0.416-0.115-0.828-0.424-1.11
		c-0.39-0.257-0.855-0.371-1.321-0.329h-6.702v7.439H448.076L448.076,176.77z M454.009,170.611c0.151-0.004,0.311,0.015,0.458,0.049
		c0.107,0.023,0.207,0.087,0.271,0.179c0.069,0.114,0.104,0.245,0.094,0.376v0.863c0.012,0.131-0.021,0.261-0.094,0.375
		c-0.063,0.087-0.163,0.15-0.271,0.176c-0.15,0.036-0.307,0.051-0.458,0.048h-4.137v-2.06h4.137V170.611z"/>
</g>
<path fill="#FFFFFF" d="M14.705,123.757h2.633v-8.662c0-0.229-0.008-0.466-0.021-0.706c-0.019-0.238-0.032-0.505-0.062-0.787
	c0.105,0.266,0.233,0.52,0.384,0.756c0.142,0.234,0.295,0.468,0.46,0.686l5.268,7.034h0.651l5.271-7.013
	c0.146-0.192,0.276-0.404,0.391-0.625c0.137-0.244,0.275-0.535,0.426-0.845c-0.039,0.366-0.07,0.677-0.084,0.917
	c-0.021,0.24-0.025,0.443-0.025,0.576v8.669h3.017v-14.019h-2.605l-6.468,8.471l-6.603-8.475h-2.634v14.016L14.705,123.757z
	 M38.852,123.757h12.47v-2.146h-9.644v-2.826h5.547v-1.98H41.68v-2.503h9.509v-2.034H38.856v11.489H38.852L38.852,123.757z
	 M55.365,123.757h2.799v-11.489h-2.799V123.757L55.365,123.757z M73.893,114.332v1.225l2.418-0.521v-0.275
	c0.029-0.532-0.076-1.062-0.312-1.536c-0.215-0.371-0.562-0.646-0.976-0.761c-0.562-0.149-1.145-0.22-1.729-0.196h-6.812
	c-0.604-0.022-1.209,0.051-1.789,0.229c-0.417,0.129-0.759,0.43-0.95,0.815c-0.214,0.529-0.311,1.104-0.282,1.674v1.275
	c-0.025,0.571,0.068,1.143,0.282,1.674c0.188,0.393,0.533,0.691,0.95,0.822c0.58,0.172,1.184,0.246,1.789,0.223h7.437v2.639h-8.444
	v-1.362l-2.495,0.462v0.328c-0.025,0.562,0.064,1.13,0.276,1.655c0.187,0.396,0.529,0.696,0.944,0.833
	c0.583,0.177,1.188,0.251,1.796,0.229h7.477c0.602,0.024,1.21-0.05,1.79-0.229c0.411-0.137,0.753-0.438,0.934-0.833
	c0.21-0.525,0.301-1.095,0.267-1.655v-1.578c0.034-0.566-0.056-1.141-0.267-1.671c-0.183-0.396-0.521-0.692-0.934-0.819
	c-0.58-0.18-1.188-0.248-1.79-0.226h-7.477v-2.42L73.893,114.332L73.893,114.332z M88.133,114.332H93.7v-2.062H79.789v2.062h5.541
	v9.425h2.8v-9.425H88.133z M97.313,123.757h12.469v-2.146h-9.651v-2.826h5.542v-1.98h-5.542v-2.503h9.512v-2.034h-12.33V123.757
	L97.313,123.757z M113.826,123.757h2.771v-4.346h2.639l4.807,4.346h4.021l-5.46-4.346h1.579c0.715,0.059,1.432-0.124,2.039-0.515
	c0.473-0.43,0.716-1.058,0.648-1.69v-2.713c0.068-0.644-0.177-1.276-0.648-1.718c-0.604-0.396-1.324-0.576-2.039-0.51H113.83v11.487
	L113.826,123.757L113.826,123.757z M122.986,114.253c0.234-0.013,0.475,0.013,0.703,0.067c0.173,0.039,0.322,0.133,0.425,0.272
	c0.111,0.177,0.162,0.374,0.146,0.579v1.331c0.016,0.205-0.036,0.405-0.146,0.576c-0.102,0.146-0.252,0.231-0.425,0.272
	c-0.232,0.06-0.469,0.08-0.703,0.07H116.6v-3.177h6.386V114.253z M140.532,118.76c0.261-0.011,0.523,0.021,0.774,0.079
	c0.183,0.042,0.339,0.151,0.439,0.308c0.107,0.194,0.156,0.422,0.146,0.646v0.87c0.013,0.226-0.038,0.442-0.146,0.646
	c-0.1,0.154-0.259,0.271-0.439,0.311c-0.251,0.062-0.516,0.091-0.774,0.079h-6.277v-2.937L140.532,118.76L140.532,118.76z
	 M140.532,114.143c0.236-0.011,0.48,0.02,0.709,0.062c0.161,0.027,0.304,0.115,0.404,0.236c0.1,0.148,0.146,0.336,0.132,0.517v1.083
	c0.014,0.184-0.034,0.361-0.133,0.514c-0.106,0.129-0.254,0.213-0.417,0.241c-0.23,0.048-0.463,0.068-0.699,0.062h-6.274v-2.715
	H140.532L140.532,114.143z M131.489,123.76h9.561c0.925,0.059,1.849-0.134,2.668-0.56c0.588-0.355,0.928-1.009,0.893-1.692v-1.47
	c0.012-0.536-0.18-1.056-0.531-1.453c-0.405-0.405-0.936-0.668-1.506-0.742c0.538-0.069,1.043-0.297,1.445-0.657
	c0.339-0.346,0.521-0.812,0.504-1.295v-1.384c0.022-0.452-0.077-0.907-0.287-1.307c-0.208-0.336-0.529-0.585-0.901-0.706
	c-0.493-0.161-1.01-0.236-1.523-0.219h-10.324v11.49L131.489,123.76z M149.334,123.76h12.477v-2.146h-9.646v-2.828h5.541v-1.979
	h-5.541v-2.504h9.507v-2.035H149.33v11.49L149.334,123.76L149.334,123.76z M172.697,114.332h5.569v-2.061h-13.918v2.061h5.544v9.428
	h2.799v-9.428H172.697z M181.876,123.76h2.771v-4.349h2.633l4.811,4.349h4.019l-5.461-4.349h1.58
	c0.717,0.062,1.434-0.124,2.04-0.511c0.474-0.434,0.713-1.059,0.648-1.694v-2.713c0.066-0.644-0.175-1.276-0.648-1.718
	c-0.604-0.396-1.323-0.576-2.04-0.51h-10.354v11.487L181.876,123.76L181.876,123.76z M191.033,114.253
	c0.234-0.013,0.475,0.015,0.704,0.067c0.173,0.039,0.324,0.133,0.426,0.272c0.111,0.177,0.165,0.38,0.146,0.581v1.329
	c0.016,0.205-0.036,0.408-0.146,0.579c-0.104,0.143-0.253,0.23-0.426,0.271c-0.232,0.058-0.469,0.078-0.704,0.072h-6.387v-3.179
	h6.387V114.253z M199.536,123.76h2.8v-11.492h-2.8v11.489V123.76z M207.443,123.76h12.467v-2.146h-9.644v-2.828h5.542v-1.979h-5.542
	v-2.504h9.508v-2.035h-12.336v11.49L207.443,123.76L207.443,123.76z M233.001,118.76c0.264-0.011,0.521,0.021,0.772,0.079
	c0.183,0.042,0.342,0.151,0.441,0.308c0.104,0.197,0.149,0.422,0.137,0.646v0.87c0.019,0.222-0.028,0.44-0.137,0.646
	c-0.103,0.154-0.261,0.271-0.441,0.311c-0.251,0.062-0.511,0.091-0.772,0.079h-6.274v-2.937L233.001,118.76L233.001,118.76z
	 M233.001,114.143c0.237-0.009,0.479,0.02,0.708,0.062c0.161,0.027,0.309,0.115,0.409,0.236c0.098,0.151,0.139,0.336,0.129,0.517
	v1.083c0.012,0.184-0.032,0.361-0.133,0.514c-0.105,0.129-0.251,0.213-0.415,0.241c-0.231,0.045-0.463,0.068-0.699,0.062h-6.274
	v-2.715H233.001L233.001,114.143z M223.961,123.76h9.562c0.92,0.059,1.848-0.134,2.667-0.56c0.588-0.355,0.928-1.009,0.893-1.692
	v-1.47c0.019-0.536-0.178-1.056-0.527-1.453c-0.404-0.405-0.938-0.668-1.513-0.742c0.542-0.069,1.048-0.297,1.452-0.657
	c0.338-0.346,0.521-0.812,0.505-1.295v-1.384c0.021-0.452-0.077-0.907-0.294-1.307c-0.206-0.336-0.521-0.585-0.896-0.706
	c-0.492-0.161-1.011-0.236-1.525-0.219H223.96v11.49L223.961,123.76L223.961,123.76z"/>
</svg>
